<?xml version="1.0" encoding="UTF-8"?>
<svg id="b" data-name="Layer 2" xmlns="http://www.w3.org/2000/svg" viewBox="0 0 1519.21 2343.17">
  <g id="c" data-name="Layer 1">
    <path d="M484.88,2005.94l.04.04v-.04h-.04ZM618.92,1853.85l15.5-42.39h-149.5v194.48h60.52v-70.26h43.65l15.5-42.46h-59.11v-39.37h73.44ZM652.99,1811.46v194.52h60.56v-194.52h-60.56ZM755.15,2005.94l.04.04v-.04h-.04ZM889.19,1853.85l15.5-42.39h-149.5v194.48h60.52v-70.26h43.65l15.5-42.46h-59.11v-39.37h73.44ZM1007.21,1811.38h-62.96l-70.88,194.52h59.66l7.53-26.14h68.45l7.89,26.14h61.19l-70.88-194.52ZM951.36,1942.47l23.39-81.05h.04l24.21,81.05h-47.64ZM1007.21,1811.38h-62.96l-70.88,194.52h59.66l7.53-26.14h68.45l7.89,26.14h61.19l-70.88-194.52ZM951.36,1942.47l23.39-81.05h.04l24.21,81.05h-47.64ZM815.75,1893.22v-39.37h73.44l15.5-42.39h-149.5v194.48h60.52v-70.26h43.65l15.5-42.46h-59.11ZM755.19,2005.98v-.04h-.04l.04.04ZM652.99,2005.98h60.56v-194.52h-60.56v194.52ZM484.92,2005.94h60.52v-70.26h43.65l15.5-42.46h-59.11v-39.37h73.44l15.5-42.39h-149.5v194.48ZM484.92,2005.98v-.04h-.04l.04.04ZM1267.62,0H251.59C112.64,0,0,112.64,0,251.59v1839.99c0,138.95,112.64,251.59,251.59,251.59h1016.03c138.95,0,251.59-112.64,251.59-251.59V251.59c0-138.95-112.64-251.59-251.59-251.59ZM1433.1,1867.47c0,184.23-150.48,333.54-336.17,333.54H424.63c-185.68,0-336.16-149.31-336.16-333.54v-333.54c0-184.23,150.48-333.54,336.16-333.54h193.31c.15,1.42.27,2.87.35,4.32.12,1.57.23,3.14.39,4.71.16,1.26.47,2.51.79,3.77.11.55.27,1.1.39,1.65.31,1.33.63,2.67.9,4,.55,2.4,1.1,4.79,1.61,7.22.2.83.08,1.77-.04,2.59-.63,3.69.08,7.19,1.53,10.56,1.53,3.49,2.36,7.03,1.42,10.87-.87,3.54-.83,7.15-.2,10.76.27,1.69.04,3.49-.28,5.22-.47,2.67-.98,5.34-1.49,8-.55,2.83-1.1,5.66-1.57,8.48-1.06,6.32-1.02,12.68.59,18.88.55,2.16,1.73,4.24,3.02,6.12,1.65,2.44,3.18,4.75,2.12,7.89-.19.59-.08,1.3,0,1.97,0,.11,0,.19.04.31l1.06,7.69c.16,1.26.36,2.47.51,3.69.67,4.71-1.84,8.24-4.31,11.78l-.36.47-.94,1.29c-.86,1.14-1.69,2.32-2.39,3.53-.51.91-.75,2.16-.59,3.18.31,2.4-.08,4.6-.83,6.79-.82,2.52-1.1,5.07-.55,7.78.79,3.96-.27,7.69-2.74,10.83-1.97,2.51-3.03,5.3-3.46,8.4-.67,4.71-2.16,9.18-3.69,13.66-.39,1.13-.74,2.23-1.14,3.37-.94,2.91-1.84,5.85-2.7,8.75-.28.87-.51,1.73-.79,2.56-.71,2.27-1.41,4.59-2,6.9-1.1,4.48-2.08,8.95-3.02,13.47-.59,2.9-1.38,5.65-3.02,8.24-1.18,1.88-2.05,3.96-2.91,6.04-.39.98-.78,1.93-1.22,2.87-.58,1.29-1.17,2.55-1.84,3.8-.79,1.46-1.61,2.83-2.47,4.24-.12.2-.24.4-.36.55-.39.67-.78,1.38-1.37,1.81-1.73,1.25-2.39,3.1-2.98,4.98-2.91,9.3-5.73,18.65-8.56,27.99-1.96,6.39-3.89,12.79-5.77,19.23-.43,1.41-1.18,2.39-2.16,3.49-2.2,2.4-4.2,5.07-5.92,7.81-4.01,6.48-7.82,13.03-11.66,19.59l-.63,1.06c-.63,1.06-1.18,2.16-1.73,3.26-.66,1.33-1.33,2.66-2.12,3.96-.55.86-1.21,1.57-1.92,2.32-.59.62-1.18,1.25-1.65,1.96-6.55,9.38-12.36,19.19-17.15,29.55v.08c-.43.86-.94,1.92-.75,2.71.48,1.96-.27,3.41-1.05,4.98-.2.36-.4.75-.55,1.1-2.1,4.6-3.98,9.29-5.66,14.05-3.57,10.01-7.1,20.06-10.48,30.15-.62,1.96-.98,4-1.33,6.08-.2,1.18-.39,2.35-.67,3.53-.15.79-.51,1.69-1.06,2.24-4.75,4.43-6,10.28-6.67,16.37-.08.66.16,1.33.35,2,.04.16.12.35.16.51.08.27.24.59.39.86.24.43.44.87.44,1.3,0,3.76,2.43,4.79,5.57,5.1.31,0,.59.08.9.12.35.08.71.11,1.06.15,1.65.08,3.3.12,4.95.2,4.47.2,8.95.39,13.46.47,7.81.2,15.58.32,23.39.47l13.38.24c5.15.12,10.29.19,15.43.31s10.28.2,15.42.32c6.13.11,12.29.23,18.41.31,6.13.12,12.29.2,18.41.31h.35c1.18,0,2.4,0,3.1,1.3h6.6l1.21-.24c.87-.19,1.77-.39,2.63-.39,12.8-.04,25.59-.04,38.39,0,.86,0,1.77.2,2.63.39l1.22.24h1.29c2.54-.96,5.35-.96,7.89,0h202.68l1.1-.24c.79-.19,1.57-.39,2.39-.39,7.11-.04,14.21-.04,21.32,0,.78,0,1.57.2,2.39.39.35.08.75.2,1.1.24h11.85c2.4-1.85,6.17-1.85,8.56,0h11.19c.78-1.38,2.04-1.34,3.29-1.3h6.01c3.53,0,7.1.08,10.63-.07,3.85-.16,7.7-.55,11.54-.95,1.06-.11,2.12-.23,3.18-.31.87-.08,1.85-.24,2.51-.71.2-.15.4-.27.63-.43,1.1-.74,2.28-1.57,2.59-2.63,2.04-6.98,3.1-14.13-1.76-20.41-2.28-2.94-3.42-6.08-4.6-9.5l-.11-.31c-3.1-8.79-6.48-17.51-9.85-26.22-.95-2.43-1.89-4.87-2.83-7.34-.86-2.24-1.81-4.43-2.71-6.63l-1.65-4c-.59-1.5-1.53-2.75-2.47-4.01-.63-.86-1.26-1.69-1.77-2.55-.62-1.06-.74-2.35-.9-3.65-.16-1.29-.27-2.59-.86-3.81-4.97-10.39-10.58-20.48-16.8-30.18-.24-.39-.51-.78-.75-1.14-.94-1.45-1.88-2.86-2.63-4.43-5.3-10.99-11.06-21.71-17.66-31.95-.08-.12-.12-.24-.19-.35-.24-.4-.44-.79-.79-.99-2.39-1.45-3.1-3.76-3.81-6.16-.11-.35-.19-.66-.31-1.02-3.81-12.13-7.73-24.25-11.66-36.34-1.02-3.1-2.16-6.2-3.41-9.23-.4-.98-1.1-1.92-1.89-2.63-5.14-4.59-9.3-10-13.5-15.42-1.29-1.69-2.63-3.42-3.96-5.06-.16-.16-.28-.36-.39-.55-.32-.44-.67-.91-1.1-1.18-4.71-3.06-7.23-7.81-9.66-12.48-.27-.55-.55-1.06-.82-1.57-3.73-6.95-6.99-14.13-10.21-21.31-.63-1.42-1.29-2.83-1.92-4.24-.67-1.42-.83-3.26-.59-4.79.63-4.12.86-8.28,1.14-12.44.04-.75.08-1.53.16-2.28.27-4.32.03-8.44-.55-12.72-.32-2.31.03-4.71.43-7.1.12-.67.19-1.33.31-2,.55-3.97.71-7.85-1.53-11.46-.59-.94-.67-2.2-.71-3.34v-.16c-.03-.94-.03-1.88,0-2.82,0-1.14,0-2.32-.07-3.46-.12-1.49-.36-3.17-1.1-4.39-2.16-3.42-2.63-7.18-2.75-11.03-.12-3.73-1.18-7.14-2.24-10.64l-.15-.55c-1.53-4.92-2.88-9.89-4.05-14.91-.31-1.37-.08-2.94.16-4.44v-.15c.35-2.16.86-4.32,1.41-6.44.71-2.75,1.1-5.42-1.41-7.58-.39-.31-.75-.98-.71-1.45.12-.82.16-1.65.16-2.51.08-2.12.16-4.24,1.53-6.04,1.49-1.93,1.88-4.12,1.96-6.48.08-1.73.24-3.41.36-5.14.11-1.26.23-2.47.31-3.73.04-.79.04-1.57.04-2.36,0-.94,0-1.92.08-2.86.16-1.65.31-3.34.86-4.79.94-2.47,1.49-4.98,1.69-7.65.23-3.06.98-6.05,1.73-9.03.31-1.22,1.13-2.39,2-3.37,3.41-3.93,4.08-8.33,2.59-13.19-.04-.2-.12-.36-.16-.55-.12-.46-.28-.9-.47-1.34-.9-1.88-.71-3.65.16-5.33l-.04.11h231.45c185.69,0,336.17,149.31,336.17,333.54h-336.17c185.69,0,336.17,149.3,336.17,333.54ZM1433.14,809.71v333.54h-547.47c.11-.69.19-1.35.26-2.04.27-2.4.59-4.83,1.1-7.19.7-3.17,2-6.28,3.33-9.26,4.05-8.99,7.22-18.25,10.36-27.55.75-2.2,1.5-4.44,2.28-6.67.71-2.04,1.65-4.01,2.59-5.97.51-1.1,1.06-2.2,1.53-3.34.24-.43.43-.9.63-1.37.86-1.92,1.73-3.85,2.35-5.85.48-1.53.83-3.06,1.14-4.63.2-1.02.4-2.04.67-3.06.43-1.69.9-3.34,1.37-5.02.51-1.85.99-3.65,1.46-5.46.74-2.98,1.49-5.97,2.19-8.95l1.89-7.65c.39-1.61.86-3.18,1.45-4.71.35-.98.79-2,1.18-2.98,1.57-3.85,3.14-7.7,3.57-11.98.16-1.37.71-2.74,1.29-4.08.24-.63.51-1.21.71-1.8.24-.67.47-1.3.71-1.93.47-1.21.94-2.39,1.29-3.65.83-2.86,1.26-5.73-.27-8.63-1.14-2.2-.75-4.08,1.49-5.69,3.49-2.44,3.85-6.36,3.57-10.09-.35-5.61.55-11.03,2.28-16.17,2.35-7.06,4.08-14.05,3.88-21.55-.08-3.92.67-7.81,2.16-11.58.59-1.53.83-3.17,1.02-4.86.12-.75.2-1.45.32-2.16.07-.39.11-.75.15-1.14.08-.59.16-1.18.32-1.77,1.45-5.18,2.9-10.36,4.43-15.5.32-1.02.79-2.04,1.38-2.94,1.64-2.67,2.63-5.34,2.67-8.64.03-1.96.86-4,1.72-5.96.24-.51.43-1.02.63-1.49,1.41-3.46,2.94-6.87,4.51-10.25.4-.86.99-1.69,1.69-2.35,1.92-1.77,3.06-3.97,3.73-6.44.04-.24.12-.43.16-.63.15-.67.35-1.29.43-1.96.59-4.83,2.28-9.26,4-13.74.12-.31.28-.67.39-1.02,1.69-4.39,2.91-8.99,3.85-13.58.9-4.36,2.71-8.32,4.71-12.2.32-.63.67-1.26.98-1.89,2.04-3.92,4.08-7.81,5.34-12.17,1.1-3.69,2.43-7.3,3.77-10.91,1.14-3.06,2.27-6.16,3.26-9.26,3.14-9.97,5.57-20.06,3.8-30.69-.27-1.53-.19-3.1-.19-4.67.04-.87.04-1.69,0-2.55v-.79c-.08-1.57-.12-3.18-.36-4.75-.43-2.82.32-5.3,2.24-7.26,4-4,6.16-8.99,8.09-14.17.66-1.76,1.37-3.53,2.08-5.26.82-2,1.61-4,2.35-6.04,1.22-3.42,2.36-6.87,3.22-10.36,1.14-4.47,2.08-8.99,2.83-13.54,1.21-7.46,2.35-14.96,3.21-22.46.91-8.08,2.59-16.01,5.58-23.58,1.65-4.16,3.25-8.36,4.9-12.52.67-1.73,1.38-3.5,2.04-5.22v-3.3l-.7-2.28c-.39-1.29-.83-2.59-1.18-3.92-.12-.4-.2-.83-.2-1.26-.07-.55-.11-1.14-.35-1.61-.9-1.8-1.61-3.57-1.02-5.65.12-.39.04-.94-.16-1.29-1.37-2.44-1.25-5.07-1.1-7.7.04-.43.08-.86.08-1.29.12-2.67-.86-4.99-2.51-6.95-1.73-2.12-2.08-4.4-2.2-7.03-.11-2.43-.47-4.86-.86-7.3l-.47-3.1c-.04-.31-.12-.62-.12-.94-.12-.98-.23-2-.51-2.94-.08-.16-.12-.36-.16-.51-.39-1.38-.78-2.87-1.57-4.01-1.92-2.82-4.98-3.33-7.57-1.13-2.16,1.84-4.24,3.84-6.28,5.8-.9.91-1.85,1.81-2.79,2.67l-.59.59c-.31.36-.66.75-1.06,1.02-2.19,1.65-3.45,1.26-4.39-1.33-.39-1.02-.75-2.08-.98-3.14-.67-2.87-1.3-5.73-1.97-8.6-1.41-6.24-2.82-12.44-4.31-18.64-.83-3.38-2.01-6.71-3.22-10.01-.47-1.33-.98-2.63-1.45-3.96-1.93-5.26-3.85-10.52-6.17-15.62-2.35-5.22-5.06-10.33-7.77-15.43l-2.35-4.47c-1.22-2.32-2.59-4.56-4.08-6.75-1.1-1.61-2.24-3.14-3.46-4.71-.55-.75-1.14-1.53-1.73-2.32,1.65-2.12.44-3.92-.98-5.73l-6.12-7.89c-2.39-3.06-4.79-6.16-7.18-9.22-1.22-1.57-2.67-2.83-4.67-3.46-1.96-.66-3.42-1.61-3.97-4.16-.47-2.35-2.12-4.55-3.65-6.55-5.92-7.89-12.16-15.47-19.27-22.37-7.18-6.99-14.83-13.39-23.15-18.84-9.07-5.93-18.29-11.7-27.91-16.68-17.19-8.87-35.32-15.55-54.36-19.31-8.4-1.69-16.84-3.07-25.28-4.44-1.53-.23-3.02-.51-4.51-.74-2.24-.36-4.51-.55-6.79-.71l-1.73-.12h-.43c-1.06-.08-2.12-.16-2.71-1.29h-1.96l-1.02.23c-.71.2-1.45.39-2.16.39-6.24.04-12.44.04-18.68,0-.71-.04-1.45-.19-2.16-.39l-1.02-.23h-1.92c-.63,1.17-1.73,1.21-2.83,1.29h-.31c-13.54.94-27.05,2.32-40.23,5.93-11.97,3.29-23.63,7.42-34.97,12.48-13.35,5.96-26.18,12.87-38.15,21.23-5.19,3.61-10.09,7.7-14.96,11.74-.86.7-1.69,1.41-2.55,2.12-3.22,2.67-6.28,5.53-9.14,8.51-1.73,1.77-3.3,3.69-4.87,5.62-.79.94-1.57,1.92-2.4,2.86-.39.47-.82.87-1.21,1.3-.28.31-.55.59-.83.86l-2,2.12c-1.69,1.77-3.33,3.53-4.9,5.38-1.18,1.37-2.48,2.51-3.81,3.69l-.9.78c-3.26,2.87-6.24,6.16-8.99,9.54-8.72,10.71-15.43,22.65-21.79,34.81-7.73,14.76-14.05,30.03-19.23,45.77-4.94,15.15-9.14,30.49-11.42,46.27-.47,3.46-.74,6.99-.86,10.48-.04,1.22.39,2.71,1.14,3.61,1.17,1.41,1.49,2.87,1.41,4.55v.2c-.2,4.4-.39,8.83-.63,13.23-.27,5.18.35,10.28,1.02,15.38.2,1.5.39,3.03.55,4.56l.12.78c.12.51.16.98.16,1.49-.08,1.57-.99,2.36-2.6,2.28-.47,0-.94-.12-1.41-.24l-.51-.11c-5.89-1.3-10.71,2.35-11.15,8.32-.15,1.76-.31,3.57-.51,5.33-.27,2.67-.54,5.34-.66,8.05-.12,3.1-.08,6.16-.08,9.26v5.85c0,1.61-.2,3.22-.47,4.83-.24,1.33-.59,2.63-.94,3.96l-.24.83c-.67,2.47-.39,4.79,1.02,6.94.86,1.34.98,2.75.83,4.36-.55,5.18-.71,10.25,2,15.07.94,1.77,1.45,3.73,1.96,5.73.2.79.39,1.61.63,2.4.47,1.61.9,3.18,1.33,4.79.9,3.29,1.81,6.55,2.95,9.73.86,2.35,2.04,4.67,3.17,6.95.63,1.25,1.26,2.47,1.85,3.73,1.18,2.59,2.24,5.22,2.39,8.16.08,1.02.55,2,1.02,2.98.16.36.28.67.44.98.27.59.55,1.18.86,1.77.47.86.9,1.73,1.22,2.67,1.13,3.41,2.23,6.83,3.29,10.24.67,2.12,1.34,4.2,2,6.32l.71,2.24c2.2,6.87,4.44,13.74,6.71,20.6,1.1,3.18,2.28,6.4,3.57,9.5.99,2.32,2.08,4.63,3.46,6.71,2.51,3.89,3.33,7.78,2.16,12.49-1.14,4.51-1.02,9.18.82,13.85,1.26,3.22,2.04,6.59,2.83,9.97.23,1.1.51,2.24.78,3.34.12.47.04,1.02,0,1.53-.08.35-.08.7-.08,1.06.04,1.21.16,2.43.24,3.65l.12,1.84c.04.75.11,1.49.19,2.24.2,1.69.4,3.33.2,4.94-.24,2.28-.24,4.44.55,6.48,1.45,3.77,1.73,7.69,1.96,11.62.12,1.29.2,2.59.32,3.88.03.63.11,1.3.11,1.97.04,1.09.12,2.19.32,3.25.59,3.03,1.1,6.01.35,9.11-.27,1.1-.2,2.43.08,3.57.55,2.2,1.14,4.36,1.73,6.52.58,2.15,1.17,4.31,1.72,6.51,1.02,4.12,1.96,8.24,2.91,12.4l.59,2.63c.31,1.49.58,3.03.86,4.52.04.19.12.35.12.55.15.7.27,1.41.15,2.04-.78,3.96.24,7.69,1.22,11.42.04.2.12.35.16.55.43,1.76,1.06,3.53,1.65,5.26.43,1.14.82,2.31,1.17,3.49.44,1.3.75,2.67,1.06,4,.12.44.24.91.36,1.38.66,2.67,1.29,5.38,1.96,8.04,1.57,6.48,3.18,12.92,4.79,19.39.39,1.49.94,2.99,1.76,4.24,2.44,3.57,2.12,7.46,1.73,11.42l-.12,1.22c-.15,1.22-.27,2.47-.19,3.69.11,1.26.62,2.51,1.21,3.65.98,1.81,2.04,3.57,3.06,5.34.87,1.45,1.69,2.9,2.52,4.35,1.1,1.97,1.57,4.05.82,6.32-.82,2.48.24,4.52,2.24,5.65,3.81,2.09,5.89,5.46,7.81,9.07.12.28.31.55.47.83.47.82.94,1.6,1.06,2.43.59,5.18,3.77,8.87,6.91,12.56l.15.19c3.14,3.69,5.54,7.85,7.93,12.02.36.54.67,1.13,1.02,1.72.24.43.51.9.75,1.34.82,1.49,1.65,2.94,2.67,4.27,3.73,4.87,5.26,10.56,6.55,16.37.43,1.89.32,3.65-1.69,4.87-.66.39-1.17,1.29-1.45,2.08-1.57,4.71-1.8,9.34.12,14.13,1.22,3.1,2.24,6.51,2.39,9.81.08,1.45.08,2.87.08,4.32H88.47v-333.54c0-184.23,150.48-333.54,336.16-333.54H88.47c0-184.23,150.48-333.53,336.16-333.53h672.34c185.69,0,336.17,149.3,336.17,333.53s-150.48,333.54-336.17,333.54h336.17ZM944.25,1811.38l-70.88,194.52h59.66l7.53-26.14h68.45l7.89,26.14h61.19l-70.88-194.52h-62.96ZM951.36,1942.47l23.39-81.05h.04l24.21,81.05h-47.64ZM815.75,1893.22v-39.37h73.44l15.5-42.39h-149.5v194.48h60.52v-70.26h43.65l15.5-42.46h-59.11ZM755.19,2005.98v-.04h-.04l.04.04ZM652.99,2005.98h60.56v-194.52h-60.56v194.52ZM484.92,2005.94h60.52v-70.26h43.65l15.5-42.46h-59.11v-39.37h73.44l15.5-42.39h-149.5v194.48ZM484.92,2005.98v-.04h-.04l.04.04ZM484.88,2005.94l.04.04v-.04h-.04ZM618.92,1853.85l15.5-42.39h-149.5v194.48h60.52v-70.26h43.65l15.5-42.46h-59.11v-39.37h73.44ZM652.99,1811.46v194.52h60.56v-194.52h-60.56ZM755.15,2005.94l.04.04v-.04h-.04ZM889.19,1853.85l15.5-42.39h-149.5v194.48h60.52v-70.26h43.65l15.5-42.46h-59.11v-39.37h73.44ZM1007.21,1811.38h-62.96l-70.88,194.52h59.66l7.53-26.14h68.45l7.89,26.14h61.19l-70.88-194.52ZM951.36,1942.47l23.39-81.05h.04l24.21,81.05h-47.64ZM1007.21,1811.38h-62.96l-70.88,194.52h59.66l7.53-26.14h68.45l7.89,26.14h61.19l-70.88-194.52ZM951.36,1942.47l23.39-81.05h.04l24.21,81.05h-47.64ZM889.19,1853.85l15.5-42.39h-149.5v194.48h60.52v-70.26h43.65l15.5-42.46h-59.11v-39.37h73.44ZM755.15,2005.94l.04.04v-.04h-.04ZM652.99,1811.46v194.52h60.56v-194.52h-60.56ZM618.92,1853.85l15.5-42.39h-149.5v194.48h60.52v-70.26h43.65l15.5-42.46h-59.11v-39.37h73.44ZM484.88,2005.94l.04.04v-.04h-.04Z" fill="#2196f3"/>
    <path d="M1426.23,2113.76h-31.4c-.98,0-1.73.27-2.28.74-.55.55-.82,1.3-.82,2.28v7.97l27.39,12.63-27.39,12.64v7.89c0,.94.27,1.73.82,2.28.55.55,1.3.82,2.28.82h31.4v-6.98h-28.85l28.85-13.11v-6.95l-28.89-13.19h28.89v-7.02ZM1397.34,2179.58v-14.29h-5.65v35.76h5.65v-14.21h28.93v-7.26h-28.93Z" fill="#fff"/>
    <path d="M885.61,1143.25l.04.16c.01-.05.02-.11.02-.16h-.06Z" fill="#fff" fill-rule="evenodd"/>
  </g>
</svg>